<?xml version="1.0" encoding="UTF-8"?>
<svg width="475px" height="167px" viewBox="0 0 475 167" version="1.1" xmlns="http://www.w3.org/2000/svg" xmlns:xlink="http://www.w3.org/1999/xlink">
    <title>Group 16</title>
    <defs>
        <polygon id="path-1" points="49.7941017 0 49.7941017 49.261165 0.213058983 0"></polygon>
    </defs>
    <g id="Page-1" stroke="none" stroke-width="1" fill="none" fill-rule="evenodd">
        <g id="Group-16">
            <g id="Group-21" transform="translate(425.000000, 0.000000)">
                <mask id="mask-2" fill="white">
                    <use xlink:href="#path-1"></use>
                </mask>
                <g id="Clip-20"></g>
                <polygon id="Fill-19" fill="#2E86DE" mask="url(#mask-2)" points="-0.171604068 49.641779 49.8750834 49.641779 49.8750834 -0.404908475 -0.171604068 -0.404908475"></polygon>
            </g>
            <path d="M39.6044922,166.441406 C46.3427734,166.441406 52.7229818,165.708984 58.7451172,164.244141 L58.7451172,164.244141 L58.7451172,137.4375 C55.4899089,139.065104 51.4860026,139.878906 46.7333984,139.878906 L46.7333984,139.878906 L46.1962891,139.878906 C41.2158203,139.846354 37.5211589,138.707031 35.1123047,136.460938 C32.7034505,134.214844 31.4990234,130.992188 31.4990234,126.792969 L31.4990234,126.792969 L31.4990234,78.6484375 L58.7451172,78.6484375 L58.7451172,55.1621094 L31.4990234,55.1621094 L31.4990234,22.7890625 L0.981445312,22.7890625 L0.981445312,126.890625 C0.981445312,138.967448 4.10644531,148.505208 10.3564453,155.503906 C16.8343099,162.795573 26.5185547,166.441406 39.4091797,166.441406 L39.4091797,166.441406 L39.6044922,166.441406 Z M110.842773,36.8027344 L110.842773,12.1933594 L80.2763672,12.1933594 L80.2763672,36.8027344 L110.842773,36.8027344 Z M110.842773,164.146484 L110.842773,55.6503906 L80.2763672,55.6503906 L80.2763672,164.146484 L110.842773,164.146484 Z M162.94043,163.804688 L162.94043,0.42578125 L132.374023,0.42578125 L132.374023,163.804688 L162.94043,163.804688 Z M215.038086,163.804688 L215.038086,0.42578125 L184.47168,0.42578125 L184.47168,163.804688 L215.038086,163.804688 Z M289.987305,166.294922 C300.599284,166.294922 312.269206,163.38151 324.99707,157.554688 L324.99707,157.554688 L324.99707,128.208984 C312.269206,135.110026 300.371419,138.560547 289.303711,138.560547 C278.236003,138.560547 270.374674,135.25651 265.719727,128.648438 C263.245768,125.132812 261.943685,122.43099 261.813477,120.542969 L261.813477,120.542969 L332.321289,120.542969 C332.907227,115.627604 333.200195,110.988932 333.200195,106.626953 C333.200195,99.2701823 332.370117,92.6621094 330.709961,86.8027344 C328.073242,77.5253906 323.711263,69.859375 317.624023,63.8046875 C309.583659,55.9270833 297.962565,51.9882812 282.760742,51.9882812 C267.526367,51.9882812 255.254232,56.9036458 245.944336,66.734375 C236.439128,76.6953125 231.686523,90.7089844 231.686523,108.775391 C231.686523,126.841797 236.683268,140.871745 246.676758,150.865234 C251.592122,155.748047 257.321289,159.507812 263.864258,162.144531 C270.635091,164.911458 279.342773,166.294922 289.987305,166.294922 Z M302.682617,99.0097656 L261.618164,99.0097656 C262.008789,93.3782552 264.254883,88.4954427 268.356445,84.3613281 C272.099935,80.5852865 276.999023,78.6972656 283.053711,78.6972656 C289.108398,78.6972656 293.926107,80.6829427 297.506836,84.6542969 C300.924805,88.3652344 302.650065,93.1503906 302.682617,99.0097656 L302.682617,99.0097656 Z M381.831055,163.951172 L381.831055,81.8222656 C385.965169,79.9016927 392.605794,78.9414062 401.75293,78.9414062 L401.75293,78.9414062 L402.192383,78.9414062 C411.567383,78.9739583 419.656576,80.5039062 426.459961,83.53125 L426.459961,83.53125 L426.459961,56.4804688 C416.010742,53.6809896 406.066081,52.28125 396.625977,52.28125 C389.49707,52.28125 382.661133,53.078776 376.118164,54.6738281 C367.036133,56.8873698 358.767904,60.5983073 351.313477,65.8066406 L351.313477,65.8066406 L351.313477,163.951172 L381.831055,163.951172 Z" id="tiller" fill="#2E86DE" fill-rule="nonzero"></path>
        </g>
    </g>
</svg>